<?xml version="1.0" encoding="UTF-8" standalone="no"?>
<!DOCTYPE svg PUBLIC "-//W3C//DTD SVG 1.1//EN"
 "http://www.w3.org/Graphics/SVG/1.1/DTD/svg11.dtd">
<!-- Generated by graphviz version 2.40.1 (20161225.0304)
 -->
<!-- Title: %3 Pages: 1 -->
<svg width="834pt" height="332pt"
 viewBox="0.00 0.00 834.26 332.00" xmlns="http://www.w3.org/2000/svg" xmlns:xlink="http://www.w3.org/1999/xlink">
<g id="graph0" class="graph" transform="scale(1 1) rotate(0) translate(4 328)">
<title>%3</title>
<polygon fill="#ffffff" stroke="transparent" points="-4,4 -4,-328 830.2641,-328 830.2641,4 -4,4"/>
<!-- [root] aws_eip.base (expand) -->
<g id="node1" class="node">
<title>[root] aws_eip.base (expand)</title>
<polygon fill="none" stroke="#000000" points="432.2843,-180 343.2843,-180 343.2843,-144 432.2843,-144 432.2843,-180"/>
<text text-anchor="middle" x="387.7843" y="-158.3" font-family="Times,serif" font-size="14.00" fill="#000000">aws_eip.base</text>
</g>
<!-- [root] aws_instance.base (expand) -->
<g id="node2" class="node">
<title>[root] aws_instance.base (expand)</title>
<polygon fill="none" stroke="#000000" points="445.7843,-108 329.7843,-108 329.7843,-72 445.7843,-72 445.7843,-108"/>
<text text-anchor="middle" x="387.7843" y="-86.3" font-family="Times,serif" font-size="14.00" fill="#000000">aws_instance.base</text>
</g>
<!-- [root] aws_eip.base (expand)&#45;&gt;[root] aws_instance.base (expand) -->
<g id="edge1" class="edge">
<title>[root] aws_eip.base (expand)&#45;&gt;[root] aws_instance.base (expand)</title>
<path fill="none" stroke="#000000" d="M387.7843,-143.8314C387.7843,-136.131 387.7843,-126.9743 387.7843,-118.4166"/>
<polygon fill="#000000" stroke="#000000" points="391.2844,-118.4132 387.7843,-108.4133 384.2844,-118.4133 391.2844,-118.4132"/>
</g>
<!-- [root] provider[&quot;registry.terraform.io/hashicorp/aws&quot;] -->
<g id="node3" class="node">
<title>[root] provider[&quot;registry.terraform.io/hashicorp/aws&quot;]</title>
<polygon fill="none" stroke="#000000" points="387.7843,-36 135.2476,-18 387.7843,0 640.321,-18 387.7843,-36"/>
<text text-anchor="middle" x="387.7843" y="-14.3" font-family="Times,serif" font-size="14.00" fill="#000000">provider[&quot;registry.terraform.io/hashicorp/aws&quot;]</text>
</g>
<!-- [root] aws_instance.base (expand)&#45;&gt;[root] provider[&quot;registry.terraform.io/hashicorp/aws&quot;] -->
<g id="edge2" class="edge">
<title>[root] aws_instance.base (expand)&#45;&gt;[root] provider[&quot;registry.terraform.io/hashicorp/aws&quot;]</title>
<path fill="none" stroke="#000000" d="M387.7843,-71.8314C387.7843,-64.131 387.7843,-54.9743 387.7843,-46.4166"/>
<polygon fill="#000000" stroke="#000000" points="391.2844,-46.4132 387.7843,-36.4133 384.2844,-46.4133 391.2844,-46.4132"/>
</g>
<!-- [root] meta.count&#45;boundary (EachMode fixup) -->
<g id="node4" class="node">
<title>[root] meta.count&#45;boundary (EachMode fixup)</title>
<ellipse fill="none" stroke="#000000" cx="176.7843" cy="-234" rx="176.5689" ry="18"/>
<text text-anchor="middle" x="176.7843" y="-230.3" font-family="Times,serif" font-size="14.00" fill="#000000">[root] meta.count&#45;boundary (EachMode fixup)</text>
</g>
<!-- [root] meta.count&#45;boundary (EachMode fixup)&#45;&gt;[root] aws_eip.base (expand) -->
<g id="edge3" class="edge">
<title>[root] meta.count&#45;boundary (EachMode fixup)&#45;&gt;[root] aws_eip.base (expand)</title>
<path fill="none" stroke="#000000" d="M227.5926,-216.6626C259.5301,-205.7645 300.7105,-191.7124 333.3205,-180.5848"/>
<polygon fill="#000000" stroke="#000000" points="334.8121,-183.774 343.146,-177.232 332.5515,-177.1491 334.8121,-183.774"/>
</g>
<!-- [root] provider[&quot;registry.terraform.io/hashicorp/aws&quot;] (close) -->
<g id="node5" class="node">
<title>[root] provider[&quot;registry.terraform.io/hashicorp/aws&quot;] (close)</title>
<ellipse fill="none" stroke="#000000" cx="598.7843" cy="-234" rx="227.4596" ry="18"/>
<text text-anchor="middle" x="598.7843" y="-230.3" font-family="Times,serif" font-size="14.00" fill="#000000">[root] provider[&quot;registry.terraform.io/hashicorp/aws&quot;] (close)</text>
</g>
<!-- [root] provider[&quot;registry.terraform.io/hashicorp/aws&quot;] (close)&#45;&gt;[root] aws_eip.base (expand) -->
<g id="edge4" class="edge">
<title>[root] provider[&quot;registry.terraform.io/hashicorp/aws&quot;] (close)&#45;&gt;[root] aws_eip.base (expand)</title>
<path fill="none" stroke="#000000" d="M547.1679,-216.3868C515.3248,-205.5209 474.5291,-191.6001 442.1831,-180.5626"/>
<polygon fill="#000000" stroke="#000000" points="443.0298,-177.1534 432.4352,-177.2363 440.7691,-183.7783 443.0298,-177.1534"/>
</g>
<!-- [root] root -->
<g id="node6" class="node">
<title>[root] root</title>
<ellipse fill="none" stroke="#000000" cx="387.7843" cy="-306" rx="47.3916" ry="18"/>
<text text-anchor="middle" x="387.7843" y="-302.3" font-family="Times,serif" font-size="14.00" fill="#000000">[root] root</text>
</g>
<!-- [root] root&#45;&gt;[root] meta.count&#45;boundary (EachMode fixup) -->
<g id="edge5" class="edge">
<title>[root] root&#45;&gt;[root] meta.count&#45;boundary (EachMode fixup)</title>
<path fill="none" stroke="#000000" d="M352.4677,-293.9488C321.1288,-283.255 274.6686,-267.4013 237.3966,-254.6828"/>
<polygon fill="#000000" stroke="#000000" points="238.2364,-251.2713 227.6419,-251.3543 235.9758,-257.8963 238.2364,-251.2713"/>
</g>
<!-- [root] root&#45;&gt;[root] provider[&quot;registry.terraform.io/hashicorp/aws&quot;] (close) -->
<g id="edge6" class="edge">
<title>[root] root&#45;&gt;[root] provider[&quot;registry.terraform.io/hashicorp/aws&quot;] (close)</title>
<path fill="none" stroke="#000000" d="M423.101,-293.9488C454.2245,-283.3285 500.2621,-267.619 537.4023,-254.9455"/>
<polygon fill="#000000" stroke="#000000" points="538.795,-258.1685 547.1289,-251.6265 536.5344,-251.5436 538.795,-258.1685"/>
</g>
</g>
</svg>
